<svg xmlns="http://www.w3.org/2000/svg" xmlns:xlink="http://www.w3.org/1999/xlink" width="21" height="21" viewBox="0 0 24.0028076171875 21" fill="none">
<path   fill-rule="evenodd"  fill="#FFFFFF"  d="M6.54 21L17.45 20.98C20.5062 20.7423 23.0714 18.5366 23.8 15.52C24.5284 12.5033 23.2526 9.36073 20.65 7.72C20.0913 3.30769 16.3906 0 12 0C7.6092 0 3.89872 3.30769 3.34 7.72C1.2604 9.03124 0 11.3384 0 13.82C0 17.6019 2.87952 20.6972 6.54 21ZM11.9988 2.214C8.70809 2.214 5.93047 4.68731 5.5088 7.994L5.3788 9.034L4.4988 9.594C2.69603 10.7288 1.81542 12.9051 2.3188 14.994C2.82237 17.0829 4.59277 18.6087 6.7088 18.774L6.8988 18.794L17.0988 18.794L17.2888 18.774C19.405 18.6092 21.175 17.083 21.6788 14.994C22.1826 12.905 21.3018 10.7289 19.4988 9.594L18.6188 9.034L18.4888 7.994C18.0669 4.68731 15.2895 2.214 11.9988 2.214ZM13.0997 7.7401C13.0997 7.7401 13.1004 6.6301 12.0097 6.6301C10.919 6.6301 10.9197 7.7401 10.9197 7.7401L10.9197 11.0501L7.6297 11.0501C7.08071 11.0501 12.0097 16.5801 12.0097 16.5801L16.3697 11.0501L13.0997 11.0501L13.0997 7.7401Z">
</path>
</svg>
