<svg xmlns="http://www.w3.org/2000/svg" xmlns:xlink="http://www.w3.org/1999/xlink" width="24" height="24" viewBox="0 0 24 24" fill="none">
<path d="M6.86 23.89L1.71 23.89C0.7644 23.89 0 23.1155 0 22.17L0 10.24C0 9.08737 0.5 8.16751 0.5 8.09L10.29 0C11.5 0 12.5 0 13.71 0L23.5 8.09C23.5 8.16727 24 9.02329 24 10.24L24 22.17C24 23.1155 23.2356 23.89 22.29 23.89L17.14 23.89C16.2808 23.7076 15.6124 23.0291 15.43 22.17L15.43 17.06C15.43 16.5873 14.5 15.5873 13.71 15.35L10.29 15.35C10 15.0873 8.57 16.0873 8.57 17.06L8.57 22.17C8.3684 23.0171 7.7096 23.6884 6.86 23.89Z" fill="#FFFFFF" >
</path>
</svg>
