<svg xmlns="http://www.w3.org/2000/svg" xmlns:xlink="http://www.w3.org/1999/xlink" width="200" height="200" viewBox="0 0 200 200" fill="none">
<path d="M33.3334 108.333C28.3334 108.333 25 105 25 100L25 75.0001C25 56.6667 40 41.6667 58.3334 41.6667L146.667 41.6667L135.833 30.8334C132.5 27.5 132.5 22.5 135.833 19.1666C139.167 15.8333 144.167 15.8333 147.5 19.1666L172.5 44.1667C173.333 45.0001 174.167 45.8335 174.167 46.6667C175 47.5001 175 49.1667 175 50.0001C175 50.8335 175 52.5001 174.167 53.3335C174.167 54.1667 173.333 55.0001 172.5 55.8335L147.5 80.8335C144.167 84.1667 139.167 84.1667 135.833 80.8335C132.5 77.5001 132.5 72.5001 135.833 69.1667L146.667 58.3335L58.3334 58.3335C49.1666 58.3335 41.6666 65.8335 41.6666 75.0001L41.6666 100C41.6666 105 38.3334 108.333 33.3334 108.333ZM58.3334 183.333C55.8334 183.333 54.1666 182.5 52.5 180.833L27.5 155.833C26.6666 155 25.8334 154.167 25.8334 153.333C25 152.5 25 150.833 25 150C25 149.167 25 147.5 25.8334 146.667C25.8334 145.833 26.6666 145 27.5 144.167L52.5 119.167C55.8334 115.833 60.8334 115.833 64.1666 119.167C67.5 122.5 67.5 127.5 64.1666 130.833L53.3334 141.667L141.667 141.667C150.833 141.667 158.333 134.167 158.333 125L158.333 100C158.333 95.0001 161.667 91.6667 166.667 91.6667C171.667 91.6667 175 95.0001 175 100L175 125C175 143.333 160 158.333 141.667 158.333L53.3334 158.333L64.1666 169.167C67.5 172.5 67.5 177.5 64.1666 180.833C62.5 182.5 60.8334 183.333 58.3334 183.333Z"   fill="#FFFFFF" >
</path>
<g >
<path     fill="#FFFFFF"  d="M97.152 88.952L87.864 92.84L87.864 82.328L100.248 75.272L107.808 75.272L107.808 125.6L97.152 125.6L97.152 88.952Z">
</path>
</g>
</svg>
