<svg width="48" height="48" viewBox="0 0 48 48" fill="none" xmlns="http://www.w3.org/2000/svg">
<path d="M2.66667 26.4C1.06667 26.4 0 25.44 0 24V16.8C0 11.52 4.8 7.2 10.6667 7.2H38.9333L35.4667 4.08C34.4 3.12 34.4 1.68 35.4667 0.72C36.5333 -0.24 38.1333 -0.24 39.2 0.72L47.2 7.92C47.4667 8.16 47.7333 8.4 47.7333 8.64C48 8.88 48 9.36 48 9.6C48 9.84 48 10.32 47.7333 10.56C47.7333 10.8 47.4667 11.04 47.2 11.28L39.2 18.48C38.1333 19.44 36.5333 19.44 35.4667 18.48C34.4 17.52 34.4 16.08 35.4667 15.12L38.9333 12H10.6667C7.73333 12 5.33333 14.16 5.33333 16.8V24C5.33333 25.44 4.26667 26.4 2.66667 26.4ZM10.6667 48C9.86667 48 9.33333 47.76 8.8 47.28L0.8 40.08C0.533333 39.84 0.266666 39.6 0.266666 39.36C-2.75761e-07 39.12 0 38.64 0 38.4C0 38.16 -2.75761e-07 37.68 0.266666 37.44C0.266666 37.2 0.533334 36.96 0.8 36.72L8.8 29.52C9.86667 28.56 11.4667 28.56 12.5333 29.52C13.6 30.48 13.6 31.92 12.5333 32.88L9.06667 36H37.3333C40.2667 36 42.6667 33.84 42.6667 31.2V24C42.6667 22.56 43.7333 21.6 45.3333 21.6C46.9333 21.6 48 22.56 48 24V31.2C48 36.48 43.2 40.8 37.3333 40.8H9.06667L12.5333 43.92C13.6 44.88 13.6 46.32 12.5333 47.28C12 47.76 11.4667 48 10.6667 48Z" fill="black"/>
<path d="M20 21L24 18V33" stroke="black" stroke-width="3"/>
</svg>
