<?xml version="1.0" standalone="no"?><!DOCTYPE svg PUBLIC "-//W3C//DTD SVG 1.1//EN" "http://www.w3.org/Graphics/SVG/1.1/DTD/svg11.dtd"><svg t="1754926509509" class="icon" viewBox="0 0 1189 1024" version="1.1" xmlns="http://www.w3.org/2000/svg" p-id="15761" xmlns:xlink="http://www.w3.org/1999/xlink" width="232.2265625" height="200"><path d="M1034.51803 365.332618c13.023988 22.326979-16.745984-39.073963-63.261941-39.073964H217.694796c-26.048976 0-46.515956 13.024988-63.260941 39.073964C139.547869 393.242591 0 605.355392 0 648.150352v288.39973c0 46.515956 37.212965 83.728922 81.867923 83.728921h1025.215039c46.515956 0 81.867923-37.212965 81.867923-83.729921v-288.39973c1.859998-42.79396-154.432855-282.816735-154.432855-282.816734s-18.606983-39.073963 0 0z m-267.932749 262.349754c-20.466981 0-33.491969 9.303991-39.073963 29.769972v7.443993c0 72.564932-59.539944 132.104876-132.105876 132.104876-72.564932 0-132.104876-59.539944-132.104876-132.104876v-7.442993c-9.303991-26.049976-37.212965-26.049976-37.212965-26.049976H72.564932l119.080888-219.554794s22.327979-39.073963 52.097951-39.073963h710.766334c26.048976 0 29.769972 9.302991 46.515957 39.073963l122.802884 219.555794H766.585281v-3.720996z m-429.809597-416.78361l-89.309916-85.589919c-9.302991-9.302991-9.302991-26.048976 0-33.490969 9.302991-9.302991 26.048976-9.302991 33.490969 0l89.310916 85.58992c9.303991 9.302991 9.303991 22.326979 0 33.490968-5.581995 5.581995-22.326979 9.302991-33.490969 0z m251.187765-40.933961c-3.720997-3.720997-7.442993-9.302991-7.442993-16.745985L576.799459 26.694935c0-13.023988 9.302991-22.326979 22.327979-26.048976 13.023988-3.720997 22.326979 9.302991 26.048976 22.327979v130.244878c0 13.024988-9.303991 22.327979-22.327979 26.049976-3.720997-1.860998-11.16399-1.860998-14.884986-9.303991z m236.301778 33.491968c-9.303991-9.303991-9.303991-22.327979 0-33.491968l85.58992-89.310917c9.302991-9.302991 26.047976-9.302991 33.490969 0 9.302991 9.302991 9.302991 26.048976 0 33.491969l-81.867924 89.309916c-11.16399 9.303991-27.909974 9.303991-37.212965 0z" opacity=".1" fill="#ffffff" p-id="15762"></path></svg>