<svg xmlns="http://www.w3.org/2000/svg" xmlns:xlink="http://www.w3.org/1999/xlink" width="24" height="24" viewBox="0 0 24 24" fill="none">
<path d="M13.0615 19.49L17.3908 21.72C17.4844 21.768 17.5902 21.7656 17.6862 21.72C17.7798 21.6744 17.858 21.588 17.8892 21.48L23.9815 0.5C24.0247 0.3536 23.988 0.2008 23.88 0.1L23.4923 0.04L0.203077 11.72C0.078277 11.7824 0 12.07 0 12.07C0 12.2188 0.078277 12.3528 0.203077 12.42L6.79385 15.92C6.91385 15.9848 7.05508 15.9664 7.16308 15.88L13.5692 10.71L8.53846 16.3C8.46646 16.3792 8.43693 16.6 8.43693 16.6L8.94462 23.64L9.18462 23.98L9.29539 24C9.29539 24 9.50271 23.9564 9.57231 23.87L13.0615 19.49Z" fill="#FFFFFF" >
</path>
</svg>
