<svg xmlns="http://www.w3.org/2000/svg" xmlns:xlink="http://www.w3.org/1999/xlink" width="30.009490966796875" height="30.004730224609375" viewBox="0 0 30.009490966796875 30.004730224609375" fill="none">
<g opacity="0.12">
<path d="M26.5427 30.0047C25.6577 30.0047 24.7727 29.6657 24.0977 28.9907L15.0047 19.9007L5.91472 28.9907C5.23673 29.6657 4.35173 30.0047 3.46673 30.0047C2.58174 30.0047 1.69674 29.6657 1.01874 28.9907C-0.331253 27.6377 -0.331253 25.4477 1.01874 24.0947L10.1087 15.0047L1.01874 5.91473C-0.334253 4.56173 -0.334253 2.36873 1.01874 1.01873C2.37174 -0.33427 4.56173 -0.33427 5.91172 1.01873L15.0047 10.1087L24.0947 1.01873C25.4477 -0.33427 27.6376 -0.33427 28.9906 1.01873C30.3436 2.36873 30.3436 4.56173 28.9906 5.91473L19.9007 15.0047L28.9906 24.0947C30.3436 25.4477 30.3436 27.6377 28.9906 28.9907C28.3156 29.6657 27.4306 30.0047 26.5427 30.0047Z"   fill="#292F4C" >
</path>
</g>
</svg>
