<svg xmlns="http://www.w3.org/2000/svg" xmlns:xlink="http://www.w3.org/1999/xlink" width="26" height="24" viewBox="0 0 26 24" fill="none">
<g opacity="0.3">
<path d="M14.1544 19.488L18.8396 21.72C18.941 21.768 19.058 21.7704 19.162 21.7248C19.2634 21.6792 19.344 21.5928 19.3778 21.4848L25.9818 0.504C26.0286 0.3576 25.9844 0.1968 25.8674 0.096L25.4488 0.036L0.2236 11.724C0.0884 11.7864 0 12.072 0 12.072C-0.0026 12.2208 0.0832 12.3576 0.2184 12.4248L7.3554 15.9168C7.4854 15.9816 7.6414 15.9672 7.7584 15.8808L14.7004 10.7064L9.2508 16.296C9.1728 16.3752 9.1416 16.596 9.1416 16.596L9.685 23.6424L9.9502 23.9808L10.0724 24C10.0724 24 10.2908 23.952 10.3662 23.8656L14.1544 19.488Z"   fill="#FFFFFF" >
</path>
</g>
</svg>
